<mxfile host="www.draw.io" modified="2019-10-28T06:26:04.226Z" agent="Mozilla/5.0 (Windows NT 6.1; Win64; x64) AppleWebKit/537.36 (KHTML, like Gecko) Chrome/76.0.3809.132 Safari/537.36" etag="8U4xfLdO2FqtuvoaP88f" version="12.1.7" type="github" pages="1">
  <diagram id="H6E7IEXJiZfdVzSYgY7N" name="Page-1">
    <mxGraphModel dx="776" dy="505" grid="1" gridSize="10" guides="1" tooltips="1" connect="1" arrows="1" fold="1" page="1" pageScale="1" pageWidth="827" pageHeight="1169" math="0" shadow="0">
      <root>
        <mxCell id="0"/>
        <mxCell id="1" parent="0"/>
        <mxCell id="8AsLaK-saWc9Pk9g60iB-11" style="edgeStyle=orthogonalEdgeStyle;rounded=0;orthogonalLoop=1;jettySize=auto;html=1;exitX=1;exitY=0.5;exitDx=0;exitDy=0;entryX=0;entryY=0.5;entryDx=0;entryDy=0;" edge="1" parent="1" source="8AsLaK-saWc9Pk9g60iB-1" target="8AsLaK-saWc9Pk9g60iB-3">
          <mxGeometry relative="1" as="geometry">
            <Array as="points">
              <mxPoint x="240" y="60"/>
              <mxPoint x="240" y="110"/>
            </Array>
          </mxGeometry>
        </mxCell>
        <mxCell id="8AsLaK-saWc9Pk9g60iB-1" value="建设实验局" style="rounded=1;whiteSpace=wrap;html=1;absoluteArcSize=1;arcSize=14;strokeWidth=2;" vertex="1" parent="1">
          <mxGeometry x="80" y="40" width="120" height="40" as="geometry"/>
        </mxCell>
        <mxCell id="8AsLaK-saWc9Pk9g60iB-8" style="edgeStyle=orthogonalEdgeStyle;rounded=0;orthogonalLoop=1;jettySize=auto;html=1;exitX=1;exitY=0.5;exitDx=0;exitDy=0;" edge="1" parent="1" source="8AsLaK-saWc9Pk9g60iB-2">
          <mxGeometry relative="1" as="geometry">
            <mxPoint x="290" y="110" as="targetPoint"/>
            <Array as="points">
              <mxPoint x="240" y="110"/>
              <mxPoint x="240" y="110"/>
            </Array>
          </mxGeometry>
        </mxCell>
        <mxCell id="8AsLaK-saWc9Pk9g60iB-2" value="客户招标" style="rounded=1;whiteSpace=wrap;html=1;absoluteArcSize=1;arcSize=14;strokeWidth=2;" vertex="1" parent="1">
          <mxGeometry x="80" y="90" width="120" height="40" as="geometry"/>
        </mxCell>
        <mxCell id="8AsLaK-saWc9Pk9g60iB-19" style="edgeStyle=orthogonalEdgeStyle;rounded=0;orthogonalLoop=1;jettySize=auto;html=1;exitX=1;exitY=0.5;exitDx=0;exitDy=0;entryX=0.5;entryY=0;entryDx=0;entryDy=0;entryPerimeter=0;" edge="1" parent="1" source="8AsLaK-saWc9Pk9g60iB-3" target="8AsLaK-saWc9Pk9g60iB-15">
          <mxGeometry relative="1" as="geometry"/>
        </mxCell>
        <mxCell id="8AsLaK-saWc9Pk9g60iB-23" style="edgeStyle=orthogonalEdgeStyle;rounded=0;orthogonalLoop=1;jettySize=auto;html=1;" edge="1" parent="1" source="8AsLaK-saWc9Pk9g60iB-3" target="8AsLaK-saWc9Pk9g60iB-14">
          <mxGeometry relative="1" as="geometry"/>
        </mxCell>
        <mxCell id="8AsLaK-saWc9Pk9g60iB-3" value="立项" style="rounded=1;whiteSpace=wrap;html=1;absoluteArcSize=1;arcSize=14;strokeWidth=2;direction=east;rotation=0;" vertex="1" parent="1">
          <mxGeometry x="290" y="90" width="70" height="40" as="geometry"/>
        </mxCell>
        <mxCell id="8AsLaK-saWc9Pk9g60iB-12" style="edgeStyle=orthogonalEdgeStyle;rounded=0;orthogonalLoop=1;jettySize=auto;html=1;exitX=1;exitY=0.5;exitDx=0;exitDy=0;" edge="1" parent="1" source="8AsLaK-saWc9Pk9g60iB-4">
          <mxGeometry relative="1" as="geometry">
            <mxPoint x="290" y="110" as="targetPoint"/>
            <Array as="points">
              <mxPoint x="240" y="160"/>
              <mxPoint x="240" y="110"/>
            </Array>
          </mxGeometry>
        </mxCell>
        <mxCell id="8AsLaK-saWc9Pk9g60iB-4" value="实验局转商用局" style="rounded=1;whiteSpace=wrap;html=1;absoluteArcSize=1;arcSize=14;strokeWidth=2;" vertex="1" parent="1">
          <mxGeometry x="80" y="140" width="120" height="40" as="geometry"/>
        </mxCell>
        <mxCell id="8AsLaK-saWc9Pk9g60iB-35" style="edgeStyle=orthogonalEdgeStyle;rounded=0;orthogonalLoop=1;jettySize=auto;html=1;exitX=0.5;exitY=1;exitDx=0;exitDy=0;" edge="1" parent="1" source="8AsLaK-saWc9Pk9g60iB-14" target="8AsLaK-saWc9Pk9g60iB-31">
          <mxGeometry relative="1" as="geometry"/>
        </mxCell>
        <mxCell id="8AsLaK-saWc9Pk9g60iB-36" style="edgeStyle=orthogonalEdgeStyle;rounded=0;orthogonalLoop=1;jettySize=auto;html=1;exitX=0.5;exitY=1;exitDx=0;exitDy=0;entryX=0.5;entryY=0;entryDx=0;entryDy=0;" edge="1" parent="1" source="8AsLaK-saWc9Pk9g60iB-14" target="8AsLaK-saWc9Pk9g60iB-32">
          <mxGeometry relative="1" as="geometry"/>
        </mxCell>
        <mxCell id="8AsLaK-saWc9Pk9g60iB-61" value="Pass" style="text;html=1;resizable=0;points=[];align=center;verticalAlign=middle;labelBackgroundColor=#ffffff;" vertex="1" connectable="0" parent="8AsLaK-saWc9Pk9g60iB-36">
          <mxGeometry x="-0.678" relative="1" as="geometry">
            <mxPoint as="offset"/>
          </mxGeometry>
        </mxCell>
        <mxCell id="8AsLaK-saWc9Pk9g60iB-14" value="立项评审会" style="rounded=1;whiteSpace=wrap;html=1;absoluteArcSize=1;arcSize=14;strokeWidth=2;" vertex="1" parent="1">
          <mxGeometry x="265" y="230" width="120" height="40" as="geometry"/>
        </mxCell>
        <mxCell id="8AsLaK-saWc9Pk9g60iB-26" style="edgeStyle=orthogonalEdgeStyle;rounded=0;orthogonalLoop=1;jettySize=auto;html=1;exitX=0.5;exitY=1;exitDx=0;exitDy=0;exitPerimeter=0;entryX=1;entryY=0.5;entryDx=0;entryDy=0;" edge="1" parent="1" source="8AsLaK-saWc9Pk9g60iB-15" target="8AsLaK-saWc9Pk9g60iB-14">
          <mxGeometry relative="1" as="geometry"/>
        </mxCell>
        <mxCell id="8AsLaK-saWc9Pk9g60iB-27" value="N&lt;br&gt;" style="text;html=1;resizable=0;points=[];align=center;verticalAlign=middle;labelBackgroundColor=#ffffff;" vertex="1" connectable="0" parent="8AsLaK-saWc9Pk9g60iB-26">
          <mxGeometry x="0.0118" y="3" relative="1" as="geometry">
            <mxPoint as="offset"/>
          </mxGeometry>
        </mxCell>
        <mxCell id="8AsLaK-saWc9Pk9g60iB-81" style="edgeStyle=orthogonalEdgeStyle;rounded=0;orthogonalLoop=1;jettySize=auto;html=1;exitX=1;exitY=0.5;exitDx=0;exitDy=0;exitPerimeter=0;entryX=0.5;entryY=0;entryDx=0;entryDy=0;" edge="1" parent="1" source="8AsLaK-saWc9Pk9g60iB-15" target="8AsLaK-saWc9Pk9g60iB-20">
          <mxGeometry relative="1" as="geometry"/>
        </mxCell>
        <mxCell id="8AsLaK-saWc9Pk9g60iB-82" value="Y" style="text;html=1;resizable=0;points=[];align=center;verticalAlign=middle;labelBackgroundColor=#ffffff;" vertex="1" connectable="0" parent="8AsLaK-saWc9Pk9g60iB-81">
          <mxGeometry y="-4" relative="1" as="geometry">
            <mxPoint x="8" y="1" as="offset"/>
          </mxGeometry>
        </mxCell>
        <mxCell id="8AsLaK-saWc9Pk9g60iB-15" value="定制化需求" style="strokeWidth=2;html=1;shape=mxgraph.flowchart.decision;whiteSpace=wrap;" vertex="1" parent="1">
          <mxGeometry x="413" y="145" width="100" height="70" as="geometry"/>
        </mxCell>
        <mxCell id="8AsLaK-saWc9Pk9g60iB-20" value="研发" style="rounded=1;whiteSpace=wrap;html=1;absoluteArcSize=1;arcSize=14;strokeWidth=2;direction=east;rotation=0;" vertex="1" parent="1">
          <mxGeometry x="540" y="230" width="70" height="40" as="geometry"/>
        </mxCell>
        <mxCell id="8AsLaK-saWc9Pk9g60iB-30" value="立项申请表（营销中心）&lt;br&gt;定制化需求表（营销中心）" style="shape=tape;whiteSpace=wrap;html=1;strokeWidth=2;size=0.19" vertex="1" parent="1">
          <mxGeometry x="640" y="98" width="150" height="65" as="geometry"/>
        </mxCell>
        <mxCell id="8AsLaK-saWc9Pk9g60iB-49" style="edgeStyle=orthogonalEdgeStyle;rounded=0;orthogonalLoop=1;jettySize=auto;html=1;exitX=0.5;exitY=1;exitDx=0;exitDy=0;entryX=0.5;entryY=0;entryDx=0;entryDy=0;" edge="1" parent="1" source="8AsLaK-saWc9Pk9g60iB-31" target="8AsLaK-saWc9Pk9g60iB-33">
          <mxGeometry relative="1" as="geometry"/>
        </mxCell>
        <mxCell id="8AsLaK-saWc9Pk9g60iB-31" value="实验局" style="rounded=1;whiteSpace=wrap;html=1;absoluteArcSize=1;arcSize=14;strokeWidth=2;" vertex="1" parent="1">
          <mxGeometry x="100" y="340" width="120" height="40" as="geometry"/>
        </mxCell>
        <mxCell id="8AsLaK-saWc9Pk9g60iB-57" style="edgeStyle=orthogonalEdgeStyle;rounded=0;orthogonalLoop=1;jettySize=auto;html=1;exitX=0.5;exitY=1;exitDx=0;exitDy=0;entryX=0.5;entryY=0;entryDx=0;entryDy=0;" edge="1" parent="1" source="8AsLaK-saWc9Pk9g60iB-32" target="8AsLaK-saWc9Pk9g60iB-38">
          <mxGeometry relative="1" as="geometry"/>
        </mxCell>
        <mxCell id="8AsLaK-saWc9Pk9g60iB-32" value="商用局" style="rounded=1;whiteSpace=wrap;html=1;absoluteArcSize=1;arcSize=14;strokeWidth=2;" vertex="1" parent="1">
          <mxGeometry x="435" y="340" width="120" height="40" as="geometry"/>
        </mxCell>
        <mxCell id="8AsLaK-saWc9Pk9g60iB-50" style="edgeStyle=orthogonalEdgeStyle;rounded=0;orthogonalLoop=1;jettySize=auto;html=1;exitX=0.5;exitY=1;exitDx=0;exitDy=0;entryX=0.5;entryY=0;entryDx=0;entryDy=0;" edge="1" parent="1" source="8AsLaK-saWc9Pk9g60iB-33" target="8AsLaK-saWc9Pk9g60iB-45">
          <mxGeometry relative="1" as="geometry"/>
        </mxCell>
        <mxCell id="8AsLaK-saWc9Pk9g60iB-80" style="edgeStyle=orthogonalEdgeStyle;rounded=0;orthogonalLoop=1;jettySize=auto;html=1;exitX=1;exitY=0.5;exitDx=0;exitDy=0;entryX=0;entryY=0.5;entryDx=0;entryDy=0;" edge="1" parent="1" source="8AsLaK-saWc9Pk9g60iB-33" target="8AsLaK-saWc9Pk9g60iB-67">
          <mxGeometry relative="1" as="geometry"/>
        </mxCell>
        <mxCell id="8AsLaK-saWc9Pk9g60iB-33" value="建设规划" style="rounded=1;whiteSpace=wrap;html=1;absoluteArcSize=1;arcSize=14;strokeWidth=2;" vertex="1" parent="1">
          <mxGeometry x="100" y="420" width="120" height="40" as="geometry"/>
        </mxCell>
        <mxCell id="8AsLaK-saWc9Pk9g60iB-59" style="edgeStyle=orthogonalEdgeStyle;rounded=0;orthogonalLoop=1;jettySize=auto;html=1;exitX=0.5;exitY=1;exitDx=0;exitDy=0;entryX=0.5;entryY=0;entryDx=0;entryDy=0;" edge="1" parent="1" source="8AsLaK-saWc9Pk9g60iB-37" target="8AsLaK-saWc9Pk9g60iB-43">
          <mxGeometry relative="1" as="geometry"/>
        </mxCell>
        <mxCell id="8AsLaK-saWc9Pk9g60iB-37" value="制定商务策略" style="rounded=1;whiteSpace=wrap;html=1;absoluteArcSize=1;arcSize=14;strokeWidth=2;" vertex="1" parent="1">
          <mxGeometry x="435" y="500" width="120" height="40" as="geometry"/>
        </mxCell>
        <mxCell id="8AsLaK-saWc9Pk9g60iB-58" style="edgeStyle=orthogonalEdgeStyle;rounded=0;orthogonalLoop=1;jettySize=auto;html=1;exitX=0.5;exitY=1;exitDx=0;exitDy=0;entryX=0.5;entryY=0;entryDx=0;entryDy=0;" edge="1" parent="1" source="8AsLaK-saWc9Pk9g60iB-38" target="8AsLaK-saWc9Pk9g60iB-37">
          <mxGeometry relative="1" as="geometry"/>
        </mxCell>
        <mxCell id="8AsLaK-saWc9Pk9g60iB-71" style="edgeStyle=orthogonalEdgeStyle;rounded=0;orthogonalLoop=1;jettySize=auto;html=1;exitX=0;exitY=0.5;exitDx=0;exitDy=0;entryX=1;entryY=0.5;entryDx=0;entryDy=0;" edge="1" parent="1" source="8AsLaK-saWc9Pk9g60iB-38" target="8AsLaK-saWc9Pk9g60iB-67">
          <mxGeometry relative="1" as="geometry">
            <Array as="points">
              <mxPoint x="400" y="440"/>
              <mxPoint x="400" y="520"/>
            </Array>
          </mxGeometry>
        </mxCell>
        <mxCell id="8AsLaK-saWc9Pk9g60iB-38" value="商务风险评估" style="rounded=1;whiteSpace=wrap;html=1;absoluteArcSize=1;arcSize=14;strokeWidth=2;" vertex="1" parent="1">
          <mxGeometry x="435" y="420" width="120" height="40" as="geometry"/>
        </mxCell>
        <mxCell id="8AsLaK-saWc9Pk9g60iB-65" style="edgeStyle=orthogonalEdgeStyle;rounded=0;orthogonalLoop=1;jettySize=auto;html=1;exitX=0.5;exitY=1;exitDx=0;exitDy=0;" edge="1" parent="1" source="8AsLaK-saWc9Pk9g60iB-41" target="8AsLaK-saWc9Pk9g60iB-44">
          <mxGeometry relative="1" as="geometry"/>
        </mxCell>
        <mxCell id="8AsLaK-saWc9Pk9g60iB-41" value="项目交付组" style="rounded=1;whiteSpace=wrap;html=1;absoluteArcSize=1;arcSize=14;strokeWidth=2;" vertex="1" parent="1">
          <mxGeometry x="435" y="740" width="120" height="40" as="geometry"/>
        </mxCell>
        <mxCell id="8AsLaK-saWc9Pk9g60iB-55" style="edgeStyle=orthogonalEdgeStyle;rounded=0;orthogonalLoop=1;jettySize=auto;html=1;exitX=0.5;exitY=1;exitDx=0;exitDy=0;entryX=0.5;entryY=0;entryDx=0;entryDy=0;" edge="1" parent="1" source="8AsLaK-saWc9Pk9g60iB-42" target="8AsLaK-saWc9Pk9g60iB-41">
          <mxGeometry relative="1" as="geometry"/>
        </mxCell>
        <mxCell id="8AsLaK-saWc9Pk9g60iB-42" value="投标项目组" style="rounded=1;whiteSpace=wrap;html=1;absoluteArcSize=1;arcSize=14;strokeWidth=2;" vertex="1" parent="1">
          <mxGeometry x="435" y="660" width="120" height="40" as="geometry"/>
        </mxCell>
        <mxCell id="8AsLaK-saWc9Pk9g60iB-56" style="edgeStyle=orthogonalEdgeStyle;rounded=0;orthogonalLoop=1;jettySize=auto;html=1;exitX=0.5;exitY=1;exitDx=0;exitDy=0;entryX=0.5;entryY=0;entryDx=0;entryDy=0;" edge="1" parent="1" source="8AsLaK-saWc9Pk9g60iB-43" target="8AsLaK-saWc9Pk9g60iB-42">
          <mxGeometry relative="1" as="geometry"/>
        </mxCell>
        <mxCell id="8AsLaK-saWc9Pk9g60iB-43" value="投标准备" style="rounded=1;whiteSpace=wrap;html=1;absoluteArcSize=1;arcSize=14;strokeWidth=2;" vertex="1" parent="1">
          <mxGeometry x="435" y="580" width="120" height="40" as="geometry"/>
        </mxCell>
        <mxCell id="8AsLaK-saWc9Pk9g60iB-78" style="edgeStyle=orthogonalEdgeStyle;rounded=0;orthogonalLoop=1;jettySize=auto;html=1;exitX=0;exitY=0.5;exitDx=0;exitDy=0;entryX=1;entryY=0.5;entryDx=0;entryDy=0;" edge="1" parent="1" source="8AsLaK-saWc9Pk9g60iB-44" target="8AsLaK-saWc9Pk9g60iB-67">
          <mxGeometry relative="1" as="geometry"/>
        </mxCell>
        <mxCell id="8AsLaK-saWc9Pk9g60iB-44" value="实施" style="rounded=1;whiteSpace=wrap;html=1;absoluteArcSize=1;arcSize=14;strokeWidth=2;" vertex="1" parent="1">
          <mxGeometry x="435" y="820" width="120" height="40" as="geometry"/>
        </mxCell>
        <mxCell id="8AsLaK-saWc9Pk9g60iB-51" style="edgeStyle=orthogonalEdgeStyle;rounded=0;orthogonalLoop=1;jettySize=auto;html=1;exitX=0.5;exitY=1;exitDx=0;exitDy=0;entryX=0.5;entryY=0;entryDx=0;entryDy=0;" edge="1" parent="1" source="8AsLaK-saWc9Pk9g60iB-45" target="8AsLaK-saWc9Pk9g60iB-46">
          <mxGeometry relative="1" as="geometry"/>
        </mxCell>
        <mxCell id="8AsLaK-saWc9Pk9g60iB-69" style="edgeStyle=orthogonalEdgeStyle;rounded=0;orthogonalLoop=1;jettySize=auto;html=1;exitX=1;exitY=0.5;exitDx=0;exitDy=0;" edge="1" parent="1" source="8AsLaK-saWc9Pk9g60iB-45">
          <mxGeometry relative="1" as="geometry">
            <mxPoint x="300" y="520" as="targetPoint"/>
          </mxGeometry>
        </mxCell>
        <mxCell id="8AsLaK-saWc9Pk9g60iB-45" value="交付前准备" style="rounded=1;whiteSpace=wrap;html=1;absoluteArcSize=1;arcSize=14;strokeWidth=2;" vertex="1" parent="1">
          <mxGeometry x="100" y="500" width="120" height="40" as="geometry"/>
        </mxCell>
        <mxCell id="8AsLaK-saWc9Pk9g60iB-52" style="edgeStyle=orthogonalEdgeStyle;rounded=0;orthogonalLoop=1;jettySize=auto;html=1;exitX=0.5;exitY=1;exitDx=0;exitDy=0;entryX=0.5;entryY=0;entryDx=0;entryDy=0;" edge="1" parent="1" source="8AsLaK-saWc9Pk9g60iB-46" target="8AsLaK-saWc9Pk9g60iB-47">
          <mxGeometry relative="1" as="geometry"/>
        </mxCell>
        <mxCell id="8AsLaK-saWc9Pk9g60iB-79" style="edgeStyle=orthogonalEdgeStyle;rounded=0;orthogonalLoop=1;jettySize=auto;html=1;exitX=1;exitY=0.5;exitDx=0;exitDy=0;entryX=0;entryY=0.5;entryDx=0;entryDy=0;" edge="1" parent="1" source="8AsLaK-saWc9Pk9g60iB-46" target="8AsLaK-saWc9Pk9g60iB-67">
          <mxGeometry relative="1" as="geometry">
            <Array as="points">
              <mxPoint x="254" y="606"/>
              <mxPoint x="254" y="520"/>
            </Array>
          </mxGeometry>
        </mxCell>
        <mxCell id="8AsLaK-saWc9Pk9g60iB-46" value="实施" style="rounded=1;whiteSpace=wrap;html=1;absoluteArcSize=1;arcSize=14;strokeWidth=2;" vertex="1" parent="1">
          <mxGeometry x="100" y="585" width="120" height="40" as="geometry"/>
        </mxCell>
        <mxCell id="8AsLaK-saWc9Pk9g60iB-53" style="edgeStyle=orthogonalEdgeStyle;rounded=0;orthogonalLoop=1;jettySize=auto;html=1;exitX=0.5;exitY=1;exitDx=0;exitDy=0;entryX=0.5;entryY=0;entryDx=0;entryDy=0;" edge="1" parent="1" source="8AsLaK-saWc9Pk9g60iB-47" target="8AsLaK-saWc9Pk9g60iB-48">
          <mxGeometry relative="1" as="geometry"/>
        </mxCell>
        <mxCell id="8AsLaK-saWc9Pk9g60iB-47" value="跟踪" style="rounded=1;whiteSpace=wrap;html=1;absoluteArcSize=1;arcSize=14;strokeWidth=2;" vertex="1" parent="1">
          <mxGeometry x="100" y="670" width="120" height="40" as="geometry"/>
        </mxCell>
        <mxCell id="8AsLaK-saWc9Pk9g60iB-48" value="结项" style="rounded=1;whiteSpace=wrap;html=1;absoluteArcSize=1;arcSize=14;strokeWidth=2;" vertex="1" parent="1">
          <mxGeometry x="100" y="755.5" width="120" height="40" as="geometry"/>
        </mxCell>
        <mxCell id="8AsLaK-saWc9Pk9g60iB-62" value="商务方案（销售）" style="shape=tape;whiteSpace=wrap;html=1;strokeWidth=2;size=0.19" vertex="1" parent="1">
          <mxGeometry x="640" y="488" width="150" height="65" as="geometry"/>
        </mxCell>
        <mxCell id="8AsLaK-saWc9Pk9g60iB-64" value="标书（营销中心）&lt;br&gt;样机（生产制造）&lt;br&gt;报告（销售部）&lt;br&gt;合同（销售部）&lt;br&gt;财报（财务部）" style="shape=tape;whiteSpace=wrap;html=1;strokeWidth=2;size=0.19" vertex="1" parent="1">
          <mxGeometry x="640" y="580" width="150" height="120" as="geometry"/>
        </mxCell>
        <mxCell id="8AsLaK-saWc9Pk9g60iB-75" style="edgeStyle=orthogonalEdgeStyle;rounded=0;orthogonalLoop=1;jettySize=auto;html=1;exitX=0.5;exitY=1;exitDx=0;exitDy=0;entryX=0.5;entryY=0;entryDx=0;entryDy=0;" edge="1" parent="1" source="8AsLaK-saWc9Pk9g60iB-67" target="8AsLaK-saWc9Pk9g60iB-73">
          <mxGeometry relative="1" as="geometry"/>
        </mxCell>
        <mxCell id="8AsLaK-saWc9Pk9g60iB-67" value="ECR" style="rounded=1;whiteSpace=wrap;html=1;absoluteArcSize=1;arcSize=14;strokeWidth=2;" vertex="1" parent="1">
          <mxGeometry x="287.5" y="500" width="80" height="40" as="geometry"/>
        </mxCell>
        <mxCell id="8AsLaK-saWc9Pk9g60iB-76" style="edgeStyle=orthogonalEdgeStyle;rounded=0;orthogonalLoop=1;jettySize=auto;html=1;exitX=0.5;exitY=1;exitDx=0;exitDy=0;entryX=0.5;entryY=0;entryDx=0;entryDy=0;" edge="1" parent="1" source="8AsLaK-saWc9Pk9g60iB-73" target="8AsLaK-saWc9Pk9g60iB-74">
          <mxGeometry relative="1" as="geometry"/>
        </mxCell>
        <mxCell id="8AsLaK-saWc9Pk9g60iB-73" value="变更评审会" style="rounded=1;whiteSpace=wrap;html=1;absoluteArcSize=1;arcSize=14;strokeWidth=2;" vertex="1" parent="1">
          <mxGeometry x="287.5" y="580" width="80" height="40" as="geometry"/>
        </mxCell>
        <mxCell id="8AsLaK-saWc9Pk9g60iB-74" value="ECN" style="rounded=1;whiteSpace=wrap;html=1;absoluteArcSize=1;arcSize=14;strokeWidth=2;" vertex="1" parent="1">
          <mxGeometry x="287.5" y="660" width="80" height="40" as="geometry"/>
        </mxCell>
      </root>
    </mxGraphModel>
  </diagram>
</mxfile>
